<svg width="54" height="73" viewBox="0 0 54 73" fill="none" xmlns="http://www.w3.org/2000/svg">
    <path d="M50.0038 57.4698L32.7664 72.4422C32.7038 72.4966 32.6236 72.5265 32.5406 72.5265H0.172241L42.0095 36.6722L50.0406 43.7239C54.1944 47.3712 54.1771 53.8448 50.0038 57.4698Z" fill="#26C5E1"/>
    <path d="M50.0038 15.5302L32.7664 0.557835C32.7038 0.503422 32.6236 0.473457 32.5406 0.473457H0.172241L42.0095 36.3278L50.0406 29.2761C54.1944 25.6288 54.1771 19.1552 50.0038 15.5302Z" fill="#26C5E1"/>
    <path d="M25.8685 50.4027L0.570875 72.5013C0.348171 72.6959 0 72.5377 0 72.242V45.0491C0 44.9501 0.0426668 44.8558 0.117096 44.7904L9.55542 36.5L25.8685 50.4027Z" fill="#1C86C4"/>
    <path d="M25.8685 22.5973L0.570875 0.498684C0.348171 0.304146 0 0.462307 0 0.758015V27.9509C0 28.0499 0.0426668 28.1442 0.117096 28.2096L9.55542 36.5L25.8685 22.5973Z" fill="#1C86C4"/>
</svg>
