<svg width="98" height="42" viewBox="0 0 98 42" fill="none" xmlns="http://www.w3.org/2000/svg">
    <path d="M1.1623e-05 41.175V1.04612e-05H17.3543C19.9335 1.04612e-05 22.1626 0.460581 24.0418 1.38172C25.9209 2.26602 27.3579 3.55561 28.3527 5.25051C29.3475 6.90857 29.845 8.87981 29.845 11.1642C29.845 13.1539 29.3291 14.9778 28.2974 16.6358C27.3026 18.257 25.7367 19.5466 23.5996 20.5046V17.7412C25.4788 18.4781 27.0078 19.4177 28.1869 20.5599C29.366 21.6652 30.2134 22.918 30.7293 24.3181C31.2819 25.7183 31.5583 27.1921 31.5583 28.7396C31.5583 32.6084 30.2871 35.6481 27.7448 37.8589C25.2393 40.0696 21.7942 41.175 17.4096 41.175H1.1623e-05ZM6.52169 35.3718H17.907C20.0809 35.3718 21.8126 34.7823 23.1022 33.6032C24.3918 32.3873 25.0366 30.7845 25.0366 28.7949C25.0366 26.7684 24.3918 25.1656 23.1022 23.9865C21.8126 22.7706 20.0809 22.1627 17.907 22.1627H6.52169V35.3718ZM6.52169 16.4147H17.5201C19.2887 16.4147 20.7072 15.9173 21.7758 14.9225C22.8443 13.8908 23.3786 12.5459 23.3786 10.8879C23.3786 9.22984 22.8443 7.94024 21.7758 7.0191C20.7072 6.09796 19.2887 5.63739 17.5201 5.63739H6.52169V16.4147ZM35.4482 41.175V11.2748H41.4172V17.1332L40.6987 16.3595C41.4356 14.4803 42.6147 13.0618 44.2359 12.1038C45.8571 11.109 47.7362 10.6115 49.8733 10.6115C52.084 10.6115 54.0368 11.0905 55.7317 12.0485C57.4266 13.0065 58.7531 14.333 59.7111 16.0279C60.6691 17.7228 61.148 19.6756 61.148 21.8863V41.175H54.958V23.5444C54.958 22.0337 54.6816 20.7625 54.129 19.7308C53.5763 18.6623 52.7841 17.8517 51.7524 17.299C50.7576 16.7095 49.6154 16.4147 48.3258 16.4147C47.0362 16.4147 45.8755 16.7095 44.8439 17.299C43.849 17.8517 43.0753 18.6623 42.5226 19.7308C41.9699 20.7994 41.6936 22.0705 41.6936 23.5444V41.175H35.4482ZM66.2293 41.175V1.04612e-05H83.5836C86.1628 1.04612e-05 88.3919 0.460581 90.2711 1.38172C92.1502 2.26602 93.5872 3.55561 94.582 5.25051C95.5768 6.90857 96.0742 8.87981 96.0742 11.1642C96.0742 13.1539 95.5584 14.9778 94.5267 16.6358C93.5319 18.257 91.9659 19.5466 89.8289 20.5046V17.7412C91.708 18.4781 93.2371 19.4177 94.4162 20.5599C95.5952 21.6652 96.4427 22.918 96.9585 24.3181C97.5112 25.7183 97.7876 27.1921 97.7876 28.7396C97.7876 32.6084 96.5164 35.6481 93.974 37.8589C91.4685 40.0696 88.0235 41.175 83.6388 41.175H66.2293ZM72.751 35.3718H84.1363C86.3101 35.3718 88.0419 34.7823 89.3315 33.6032C90.6211 32.3873 91.2659 30.7845 91.2659 28.7949C91.2659 26.7684 90.6211 25.1656 89.3315 23.9865C88.0419 22.7706 86.3101 22.1627 84.1363 22.1627H72.751V35.3718ZM72.751 16.4147H83.7494C85.518 16.4147 86.9365 15.9173 88.005 14.9225C89.0736 13.8908 89.6078 12.5459 89.6078 10.8879C89.6078 9.22984 89.0736 7.94024 88.005 7.0191C86.9365 6.09796 85.518 5.63739 83.7494 5.63739H72.751V16.4147Z" fill="url(#paint0_linear_21_2785)"/>
    <defs>
        <linearGradient id="paint0_linear_21_2785" x1="87.7734" y1="53.175" x2="-9.14695" y2="-8.60714" gradientUnits="userSpaceOnUse">
            <stop offset="0.0276735" stop-color="#1C86C4"/>
            <stop offset="0.44785" stop-color="#0773BB"/>
            <stop offset="1" stop-color="#26C5E1"/>
        </linearGradient>
    </defs>
</svg>
